<svg width="73" height="44" viewBox="0 0 73 44" fill="none" xmlns="http://www.w3.org/2000/svg">
<path d="M68.4756 0.0629883C69.0326 0.0629883 69.5703 0.159017 70.0889 0.351074C70.6266 0.523926 71.0972 0.783203 71.5005 1.12891C71.923 1.4554 72.2591 1.86833 72.5088 2.36768C72.7585 2.84782 72.8833 3.39518 72.8833 4.00977C72.8833 5.20052 72.4992 6.55452 71.731 8.07178C70.9627 9.58903 69.964 11.3656 68.7349 13.4014C67.4097 15.5716 66.1613 17.7419 64.9897 19.9121C63.8182 22.0632 62.7235 24.147 61.7056 26.1636C60.7069 28.161 59.785 30.0527 58.9399 31.8389C58.1141 33.6058 57.3939 35.1903 56.7793 36.5923C57.5475 36.6883 58.3158 36.7651 59.084 36.8228C59.8522 36.8804 60.5436 36.8996 61.1582 36.8804L61.2158 38.3784C61.0814 38.3784 60.5724 38.3784 59.689 38.3784C58.8247 38.3592 57.6436 38.244 56.1455 38.0327C55.5501 39.4155 55.0892 40.491 54.7627 41.2593C54.4554 42.0275 54.3018 42.4308 54.3018 42.4692L50.8735 41.4033L52.6021 37.4565C51.3153 37.1685 49.9613 36.8324 48.54 36.4482C47.1188 36.0641 45.6688 35.632 44.1899 35.1519C42.7303 34.6525 41.2707 34.0955 39.811 33.481C38.3514 32.8664 36.9494 32.1942 35.605 31.4644C34.3566 32.9048 33.0026 34.326 31.543 35.728C30.0833 37.1108 28.5181 38.3592 26.8472 39.4731C25.1763 40.5679 23.3997 41.4513 21.5176 42.1235C19.6546 42.8149 17.686 43.1606 15.6118 43.1606C13.7681 43.1606 11.9243 42.8822 10.0806 42.3252C8.25602 41.7874 6.61393 41 5.1543 39.9629C3.71387 38.9066 2.54232 37.6294 1.63965 36.1313C0.736979 34.6141 0.285645 32.8952 0.285645 30.9746C0.285645 29.4574 0.57373 28.1226 1.1499 26.9702C1.70687 25.8179 2.4751 24.8576 3.45459 24.0894C4.45329 23.3211 5.61523 22.745 6.94043 22.3608C8.28483 21.9575 9.72526 21.7559 11.2617 21.7559C12.4333 21.7559 13.6432 21.8711 14.8916 22.1016C16.1592 22.332 17.3883 22.7161 18.5791 23.2539C19.7699 23.7917 20.8934 24.5023 21.9497 25.3857C23.006 26.2692 23.9087 27.3639 24.6577 28.6699L23.3901 29.4766C23.3709 29.4382 23.2557 29.2941 23.0444 29.0444C22.8524 28.7756 22.5547 28.4587 22.1514 28.0938C21.7673 27.7096 21.2679 27.3063 20.6533 26.8838C20.0387 26.4613 19.2993 26.0771 18.4351 25.7314C17.59 25.3665 16.6009 25.0688 15.4678 24.8384C14.3538 24.5887 13.0863 24.4639 11.665 24.4639C10.2246 24.4639 8.96663 24.7135 7.89111 25.2129C6.81559 25.693 5.91292 26.3172 5.18311 27.0854C4.47249 27.8345 3.93473 28.6795 3.56982 29.6206C3.22412 30.5617 3.05127 31.474 3.05127 32.3574C3.05127 33.3945 3.23372 34.3452 3.59863 35.2095C3.96354 36.0545 4.45329 36.8228 5.06787 37.5142C5.70166 38.2056 6.43148 38.8105 7.25732 39.3291C8.10238 39.8285 8.98584 40.251 9.90771 40.5967C10.8488 40.9424 11.7995 41.2017 12.7598 41.3745C13.7393 41.5474 14.6899 41.6338 15.6118 41.6338C17.5132 41.6338 19.3377 41.3265 21.0854 40.7119C22.8332 40.0781 24.4849 39.2523 26.0405 38.2344C27.5962 37.1973 29.0558 36.0257 30.4194 34.7197C31.8022 33.4137 33.0794 32.0789 34.251 30.7153C32.945 29.9279 31.735 29.0828 30.6211 28.1802C29.5264 27.2583 28.5757 26.2788 27.769 25.2417C26.9624 24.1854 26.3286 23.0618 25.8677 21.8711C25.4259 20.6611 25.2051 19.384 25.2051 18.0396C25.2051 16.9256 25.4067 15.8789 25.8101 14.8994C26.2326 13.9199 26.7992 13.0653 27.5098 12.3354C28.2396 11.5864 29.0942 11.0007 30.0737 10.5781C31.0724 10.1364 32.1383 9.91553 33.2715 9.91553C34.5391 9.91553 35.7394 10.1172 36.8726 10.5205C38.0057 10.9046 39.0812 11.4424 40.0991 12.1338C41.117 12.806 42.0677 13.6126 42.9512 14.5537C43.8538 15.4948 44.6989 16.5127 45.4863 17.6074C47.6374 15.2067 49.7788 12.95 51.9106 10.8374C54.0617 8.70557 56.1263 6.84261 58.1045 5.24854C60.0827 3.65446 61.9456 2.39648 63.6934 1.47461C65.4603 0.533529 67.0544 0.0629883 68.4756 0.0629883ZM46.3794 18.9326C47.2821 20.3154 48.1079 21.7463 48.8569 23.2251C49.606 24.7039 50.2782 26.154 50.8735 27.5752C51.4881 28.9964 52.0259 30.3504 52.4868 31.6372C52.967 32.9048 53.3799 34.0283 53.7256 35.0078C55.9727 30.1104 58.3734 25.3089 60.9277 20.6035C63.4821 15.8981 66.3534 11.2503 69.5415 6.66016C70.0601 5.89193 70.425 5.25814 70.6362 4.75879C70.8667 4.24023 70.9819 3.7985 70.9819 3.43359C70.9819 2.81901 70.7227 2.35807 70.2041 2.05078C69.6855 1.72428 69.0902 1.56104 68.418 1.56104C66.2861 1.56104 63.3765 3.02067 59.689 5.93994C56.0207 8.84001 51.5841 13.1709 46.3794 18.9326ZM27.8267 19.4224C27.8267 20.4403 28.0187 21.4102 28.4028 22.332C28.7869 23.2347 29.3151 24.1086 29.9873 24.9536C30.6595 25.7795 31.4565 26.5669 32.3784 27.3159C33.3003 28.0457 34.299 28.7371 35.3745 29.3901C36.8149 27.6424 38.2842 25.8851 39.7822 24.1182C41.2803 22.3512 42.7975 20.6035 44.334 18.875C43.6618 17.9915 42.9608 17.1753 42.231 16.4263C41.5203 15.658 40.7713 14.9954 39.9839 14.4385C39.1965 13.8815 38.3802 13.4494 37.5352 13.1421C36.6901 12.8348 35.8162 12.6812 34.9136 12.6812C33.8957 12.6812 32.9546 12.854 32.0903 13.1997C31.2261 13.5454 30.4771 14.0256 29.8433 14.6401C29.2095 15.2355 28.7101 15.9461 28.3452 16.772C27.9995 17.5786 27.8267 18.4621 27.8267 19.4224ZM52.458 35.8433C52.1891 34.979 51.8242 33.9323 51.3633 32.7031C50.9215 31.474 50.3934 30.1584 49.7788 28.7563C49.1834 27.3351 48.5016 25.8851 47.7334 24.4062C46.9844 22.9274 46.1585 21.5158 45.2559 20.1714C43.9307 21.6694 42.5575 23.2443 41.1362 24.896C39.715 26.5477 38.2362 28.305 36.6997 30.168C38.0441 30.917 39.4461 31.5988 40.9058 32.2134C42.3846 32.8088 43.8154 33.3465 45.1982 33.8267C46.6003 34.2876 47.9255 34.6909 49.1738 35.0366C50.4414 35.3823 51.5361 35.6512 52.458 35.8433Z" fill="black"/>
</svg>
